<svg width="20" height="20" viewBox="0 0 20 20" fill="none" xmlns="http://www.w3.org/2000/svg">
<path d="M11.6667 7.5C11.4306 7.5 11.2328 7.42 11.0733 7.26C10.9139 7.1 10.8339 6.90222 10.8333 6.66667V3.33333C10.8333 3.09722 10.9133 2.89944 11.0733 2.74C11.2333 2.58056 11.4311 2.50056 11.6667 2.5H16.6667C16.9028 2.5 17.1008 2.58 17.2608 2.74C17.4208 2.9 17.5006 3.09778 17.5 3.33333V6.66667C17.5 6.90278 17.42 7.10083 17.26 7.26083C17.1 7.42083 16.9022 7.50056 16.6667 7.5H11.6667ZM3.33333 10.8333C3.09722 10.8333 2.89944 10.7533 2.74 10.5933C2.58056 10.4333 2.50056 10.2356 2.5 10V3.33333C2.5 3.09722 2.58 2.89944 2.74 2.74C2.9 2.58056 3.09778 2.50056 3.33333 2.5H8.33333C8.56944 2.5 8.7675 2.58 8.9275 2.74C9.0875 2.9 9.16722 3.09778 9.16667 3.33333V10C9.16667 10.2361 9.08667 10.4342 8.92667 10.5942C8.76667 10.7542 8.56889 10.8339 8.33333 10.8333H3.33333ZM11.6667 17.5C11.4306 17.5 11.2328 17.42 11.0733 17.26C10.9139 17.1 10.8339 16.9022 10.8333 16.6667V10C10.8333 9.76389 10.9133 9.56611 11.0733 9.40667C11.2333 9.24722 11.4311 9.16722 11.6667 9.16667H16.6667C16.9028 9.16667 17.1008 9.24667 17.2608 9.40667C17.4208 9.56667 17.5006 9.76444 17.5 10V16.6667C17.5 16.9028 17.42 17.1008 17.26 17.2608C17.1 17.4208 16.9022 17.5006 16.6667 17.5H11.6667ZM3.33333 17.5C3.09722 17.5 2.89944 17.42 2.74 17.26C2.58056 17.1 2.50056 16.9022 2.5 16.6667V13.3333C2.5 13.0972 2.58 12.8994 2.74 12.74C2.9 12.5806 3.09778 12.5006 3.33333 12.5H8.33333C8.56944 12.5 8.7675 12.58 8.9275 12.74C9.0875 12.9 9.16722 13.0978 9.16667 13.3333V16.6667C9.16667 16.9028 9.08667 17.1008 8.92667 17.2608C8.76667 17.4208 8.56889 17.5006 8.33333 17.5H3.33333Z" fill="white"/>
</svg>
